<svg xmlns="http://www.w3.org/2000/svg" viewBox="0 0 506.17 149.21"><defs><style>.cls-1{fill:#335f91;stroke:#335f91;}.cls-1,.cls-2{stroke-miterlimit:10;stroke-width:0.68px;}.cls-2{fill:#c7e2c8;stroke:#c7e2c8;}.cls-3{fill:#336092;}.cls-4{fill:#c8e2c9;}</style></defs><g id="Layer_2" data-name="Layer 2"><g id="Layer_1-2" data-name="Layer 1"><path class="cls-1" d="M117.1,60.09,92.39,95.7l-60-41.65L57.08,18.43C69.69.28,93.33-5.12,109.91,6.39a34.92,34.92,0,0,1,14.54,24.35A41.91,41.91,0,0,1,117.1,60.09Z"/><path class="cls-2" d="M92.39,95.7,68.05,130.77c-12.6,18.16-36.25,23.55-52.83,12S-4.57,107.28,8,89.12L32.37,54.05Z"/><path class="cls-3" d="M180.51,130.7s-9,17.53-32.22,17.53c-22,0-39-17-39-41.84s17-41.84,39-41.84A36.52,36.52,0,0,1,178.82,81l-1.7,1.13a34.48,34.48,0,0,0-28.83-15.27c-19.79,0-35.62,15.83-35.62,39.58S128.5,146,148.29,146c22.05,0,30.53-16.4,30.53-16.4Z"/><path class="cls-3" d="M244.4,132.4A46.86,46.86,0,0,0,246.1,146h-3.39a53.87,53.87,0,0,1-1.13-10.18H241s-9,11.87-22.62,11.87c-14.13,0-23.18-9-23.18-22V89.43h3.4v36.18a19.32,19.32,0,0,0,19.78,19.79c13.57,0,22.62-13,22.62-13v-43h3.39Z"/><path class="cls-3" d="M297,91.69a18.62,18.62,0,0,0-6.22-1.13c-12.44,0-20.35,12.44-20.35,12.44v43H267V103a46.86,46.86,0,0,0-1.7-13.57h3.39a53.83,53.83,0,0,1,1.13,10.17h.57s7.91-11.87,20.35-11.87a21.51,21.51,0,0,1,7.35,1.13Z"/><path class="cls-3" d="M306,118.83c0,15.26,11.31,26.57,24.88,26.57,14.7,0,22-11.87,22-11.87l1.69,1.13s-7.91,13-23.74,13-28.27-12.44-28.27-30,12.43-30,27.14-30,27.13,12.44,27.13,28.84a5.88,5.88,0,0,1-.56,2.26Zm47.49-2.26c0-15.27-11.31-26.58-23.74-26.58S306,101.3,306,116.57Z"/><path class="cls-4" d="M440.59,130.7s-9,17.53-32.22,17.53c-22.06,0-39-17-39-41.84s17-41.84,39-41.84A36.54,36.54,0,0,1,438.9,81l-1.7,1.13a34.5,34.5,0,0,0-28.83-15.27c-19.79,0-35.62,15.83-35.62,39.58S388.58,146,408.37,146c22,0,30.53-16.4,30.53-16.4Z"/><path class="cls-4" d="M477.91,87.73c15.83,0,28.26,12.44,28.26,30s-12.43,30-28.26,30-28.27-12.44-28.27-30S462.07,87.73,477.91,87.73Zm0,2.26C464.34,90,453,101.3,453,117.7s11.31,27.7,24.88,27.7,24.87-11.31,24.87-27.7S491.47,90,477.91,90Z"/></g></g></svg>